<svg width="640" height="200" viewBox="0 0 640 200" fill="none" xmlns="http://www.w3.org/2000/svg">
<path d="M20 60L70 110L132 48L117 33L70 80L35 45L20 60Z" fill="#FF7A29"/>
<path d="M20 115L70 165L132 103L117 88L70 135L35 100L20 115Z" fill="#FF7A29"/>
<path d="M165.976 113V62.6H188.872C194.344 62.6 199.168 63.656 203.344 65.768C207.52 67.832 210.784 70.736 213.136 74.48C215.488 78.224 216.664 82.664 216.664 87.8C216.664 92.888 215.488 97.328 213.136 101.12C210.784 104.864 207.52 107.792 203.344 109.904C199.168 111.968 194.344 113 188.872 113H165.976ZM177.64 103.424H188.296C191.656 103.424 194.56 102.8 197.008 101.552C199.504 100.256 201.424 98.432 202.768 96.08C204.16 93.728 204.856 90.968 204.856 87.8C204.856 84.584 204.16 81.824 202.768 79.52C201.424 77.168 199.504 75.368 197.008 74.12C194.56 72.824 191.656 72.176 188.296 72.176H177.64V103.424ZM241.012 113.576C237.796 113.576 234.916 112.952 232.372 111.704C229.876 110.456 227.932 108.56 226.54 106.016C225.148 103.424 224.452 100.136 224.452 96.152V74.264H235.684V94.496C235.684 97.712 236.356 100.088 237.7 101.624C239.092 103.112 241.036 103.856 243.532 103.856C245.26 103.856 246.796 103.496 248.14 102.776C249.484 102.008 250.54 100.856 251.308 99.32C252.076 97.736 252.46 95.768 252.46 93.416V74.264H263.692V113H253.036V102.344L254.98 105.44C253.684 108.128 251.764 110.168 249.22 111.56C246.724 112.904 243.988 113.576 241.012 113.576ZM297.858 113V105.44L297.138 103.784V90.248C297.138 87.848 296.394 85.976 294.906 84.632C293.466 83.288 291.234 82.616 288.21 82.616C286.146 82.616 284.106 82.952 282.09 83.624C280.122 84.248 278.442 85.112 277.05 86.216L273.018 78.368C275.13 76.88 277.674 75.728 280.65 74.912C283.626 74.096 286.65 73.688 289.722 73.688C295.626 73.688 300.21 75.08 303.474 77.864C306.738 80.648 308.37 84.992 308.37 90.896V113H297.858ZM286.05 113.576C283.026 113.576 280.434 113.072 278.274 112.064C276.114 111.008 274.458 109.592 273.306 107.816C272.154 106.04 271.578 104.048 271.578 101.84C271.578 99.536 272.13 97.52 273.234 95.792C274.386 94.064 276.186 92.72 278.634 91.76C281.082 90.752 284.274 90.248 288.21 90.248H298.506V96.8H289.434C286.794 96.8 284.97 97.232 283.962 98.096C283.002 98.96 282.522 100.04 282.522 101.336C282.522 102.776 283.074 103.928 284.178 104.792C285.33 105.608 286.89 106.016 288.858 106.016C290.73 106.016 292.41 105.584 293.898 104.72C295.386 103.808 296.466 102.488 297.138 100.76L298.866 105.944C298.05 108.44 296.562 110.336 294.402 111.632C292.242 112.928 289.458 113.576 286.05 113.576ZM318.536 113V59.576H329.768V113H318.536ZM351.784 85.28H375.976V94.64H351.784V85.28ZM352.648 113H340.984V62.6H379.072V71.96H352.648V113ZM403.694 113.576C399.566 113.576 395.894 112.712 392.678 110.984C389.51 109.256 386.99 106.904 385.118 103.928C383.294 100.904 382.382 97.472 382.382 93.632C382.382 89.744 383.294 86.312 385.118 83.336C386.99 80.312 389.51 77.96 392.678 76.28C395.894 74.552 399.566 73.688 403.694 73.688C407.774 73.688 411.422 74.552 414.638 76.28C417.854 77.96 420.374 80.288 422.198 83.264C424.022 86.24 424.934 89.696 424.934 93.632C424.934 97.472 424.022 100.904 422.198 103.928C420.374 106.904 417.854 109.256 414.638 110.984C411.422 112.712 407.774 113.576 403.694 113.576ZM403.694 104.36C405.566 104.36 407.246 103.928 408.734 103.064C410.222 102.2 411.398 100.976 412.262 99.392C413.126 97.76 413.558 95.84 413.558 93.632C413.558 91.376 413.126 89.456 412.262 87.872C411.398 86.288 410.222 85.064 408.734 84.2C407.246 83.336 405.566 82.904 403.694 82.904C401.822 82.904 400.142 83.336 398.654 84.2C397.166 85.064 395.966 86.288 395.054 87.872C394.19 89.456 393.758 91.376 393.758 93.632C393.758 95.84 394.19 97.76 395.054 99.392C395.966 100.976 397.166 102.2 398.654 103.064C400.142 103.928 401.822 104.36 403.694 104.36ZM432.442 113V74.264H443.17V85.208L441.658 82.04C442.81 79.304 444.658 77.24 447.202 75.848C449.746 74.408 452.842 73.688 456.49 73.688V84.056C456.01 84.008 455.578 83.984 455.194 83.984C454.81 83.936 454.402 83.912 453.97 83.912C450.898 83.912 448.402 84.8 446.482 86.576C444.61 88.304 443.674 91.016 443.674 94.712V113H432.442ZM481.103 127.544C477.455 127.544 473.927 127.088 470.519 126.176C467.159 125.312 464.351 123.992 462.095 122.216L466.559 114.152C468.191 115.496 470.255 116.552 472.751 117.32C475.295 118.136 477.791 118.544 480.239 118.544C484.223 118.544 487.103 117.656 488.879 115.88C490.703 114.104 491.615 111.464 491.615 107.96V102.128L492.335 92.408L492.191 82.616V74.264H502.847V106.52C502.847 113.72 500.975 119.024 497.231 122.432C493.487 125.84 488.111 127.544 481.103 127.544ZM479.375 111.128C475.775 111.128 472.511 110.36 469.583 108.824C466.703 107.24 464.375 105.056 462.599 102.272C460.871 99.44 460.007 96.152 460.007 92.408C460.007 88.616 460.871 85.328 462.599 82.544C464.375 79.712 466.703 77.528 469.583 75.992C472.511 74.456 475.775 73.688 479.375 73.688C482.639 73.688 485.519 74.36 488.015 75.704C490.511 77 492.455 79.04 493.847 81.824C495.239 84.56 495.935 88.088 495.935 92.408C495.935 96.68 495.239 100.208 493.847 102.992C492.455 105.728 490.511 107.768 488.015 109.112C485.519 110.456 482.639 111.128 479.375 111.128ZM481.607 101.912C483.575 101.912 485.327 101.528 486.863 100.76C488.399 99.944 489.599 98.816 490.463 97.376C491.327 95.936 491.759 94.28 491.759 92.408C491.759 90.488 491.327 88.832 490.463 87.44C489.599 86 488.399 84.896 486.863 84.128C485.327 83.312 483.575 82.904 481.607 82.904C479.639 82.904 477.887 83.312 476.351 84.128C474.815 84.896 473.591 86 472.679 87.44C471.815 88.832 471.383 90.488 471.383 92.408C471.383 94.28 471.815 95.936 472.679 97.376C473.591 98.816 474.815 99.944 476.351 100.76C477.887 101.528 479.639 101.912 481.607 101.912ZM532.525 113.576C528.109 113.576 524.221 112.712 520.861 110.984C517.549 109.256 514.981 106.904 513.157 103.928C511.333 100.904 510.421 97.472 510.421 93.632C510.421 89.744 511.309 86.312 513.085 83.336C514.909 80.312 517.381 77.96 520.501 76.28C523.621 74.552 527.149 73.688 531.085 73.688C534.877 73.688 538.285 74.504 541.309 76.136C544.381 77.72 546.805 80.024 548.581 83.048C550.357 86.024 551.245 89.6 551.245 93.776C551.245 94.208 551.221 94.712 551.173 95.288C551.125 95.816 551.077 96.32 551.029 96.8H519.565V90.248H545.125L540.805 92.192C540.805 90.176 540.397 88.424 539.581 86.936C538.765 85.448 537.637 84.296 536.197 83.48C534.757 82.616 533.077 82.184 531.157 82.184C529.237 82.184 527.533 82.616 526.045 83.48C524.605 84.296 523.477 85.472 522.661 87.008C521.845 88.496 521.437 90.272 521.437 92.336V94.064C521.437 96.176 521.893 98.048 522.805 99.68C523.765 101.264 525.085 102.488 526.765 103.352C528.493 104.168 530.509 104.576 532.813 104.576C534.877 104.576 536.677 104.264 538.213 103.64C539.797 103.016 541.237 102.08 542.533 100.832L548.509 107.312C546.733 109.328 544.501 110.888 541.813 111.992C539.125 113.048 536.029 113.576 532.525 113.576Z" fill="white"/>
<path d="M165.992 139V122.2H169.208L179.12 134.296H177.56V122.2H181.4V139H178.208L168.272 126.904H169.832V139H165.992ZM193.535 139.288C192.207 139.288 190.975 139.072 189.839 138.64C188.719 138.208 187.743 137.6 186.911 136.816C186.095 136.032 185.455 135.112 184.991 134.056C184.543 133 184.319 131.848 184.319 130.6C184.319 129.352 184.543 128.2 184.991 127.144C185.455 126.088 186.103 125.168 186.935 124.384C187.767 123.6 188.743 122.992 189.863 122.56C190.983 122.128 192.199 121.912 193.511 121.912C194.839 121.912 196.055 122.128 197.159 122.56C198.279 122.992 199.247 123.6 200.063 124.384C200.895 125.168 201.543 126.088 202.007 127.144C202.471 128.184 202.703 129.336 202.703 130.6C202.703 131.848 202.471 133.008 202.007 134.08C201.543 135.136 200.895 136.056 200.063 136.84C199.247 137.608 198.279 138.208 197.159 138.64C196.055 139.072 194.847 139.288 193.535 139.288ZM193.511 135.976C194.263 135.976 194.951 135.848 195.575 135.592C196.215 135.336 196.775 134.968 197.255 134.488C197.735 134.008 198.103 133.44 198.359 132.784C198.631 132.128 198.767 131.4 198.767 130.6C198.767 129.8 198.631 129.072 198.359 128.416C198.103 127.76 197.735 127.192 197.255 126.712C196.791 126.232 196.239 125.864 195.599 125.608C194.959 125.352 194.263 125.224 193.511 125.224C192.759 125.224 192.063 125.352 191.423 125.608C190.799 125.864 190.247 126.232 189.767 126.712C189.287 127.192 188.911 127.76 188.639 128.416C188.383 129.072 188.255 129.8 188.255 130.6C188.255 131.384 188.383 132.112 188.639 132.784C188.911 133.44 189.279 134.008 189.743 134.488C190.223 134.968 190.783 135.336 191.423 135.592C192.063 135.848 192.759 135.976 193.511 135.976ZM212.422 139V122.2H216.31V139H212.422ZM220.297 139V122.2H223.513L230.665 134.056H228.961L235.993 122.2H239.185L239.233 139H235.585L235.561 127.792H236.233L230.617 137.224H228.865L223.129 127.792H223.945V139H220.297ZM241.011 139L248.499 122.2H252.339L259.851 139H255.771L249.627 124.168H251.163L244.995 139H241.011ZM244.755 135.4L245.787 132.448H254.427L255.483 135.4H244.755ZM269.471 139.288C268.143 139.288 266.919 139.08 265.799 138.664C264.695 138.232 263.727 137.624 262.895 136.84C262.079 136.056 261.439 135.136 260.975 134.08C260.527 133.024 260.303 131.864 260.303 130.6C260.303 129.336 260.527 128.176 260.975 127.12C261.439 126.064 262.087 125.144 262.919 124.36C263.751 123.576 264.727 122.976 265.847 122.56C266.967 122.128 268.199 121.912 269.543 121.912C271.031 121.912 272.367 122.16 273.551 122.656C274.751 123.152 275.759 123.872 276.575 124.816L274.079 127.12C273.471 126.48 272.807 126.008 272.087 125.704C271.367 125.384 270.583 125.224 269.735 125.224C268.919 125.224 268.175 125.352 267.503 125.608C266.831 125.864 266.247 126.232 265.751 126.712C265.271 127.192 264.895 127.76 264.623 128.416C264.367 129.072 264.239 129.8 264.239 130.6C264.239 131.384 264.367 132.104 264.623 132.76C264.895 133.416 265.271 133.992 265.751 134.488C266.247 134.968 266.823 135.336 267.479 135.592C268.151 135.848 268.887 135.976 269.687 135.976C270.455 135.976 271.199 135.856 271.919 135.616C272.655 135.36 273.367 134.936 274.055 134.344L276.263 137.152C275.351 137.84 274.287 138.368 273.071 138.736C271.871 139.104 270.671 139.288 269.471 139.288ZM272.711 136.648V130.336H276.263V137.152L272.711 136.648ZM283.451 128.968H291.539V131.992H283.451V128.968ZM283.739 135.88H292.883V139H279.875V122.2H292.571V125.32H283.739V135.88ZM306.373 129.76H314.437V132.88H306.373V129.76ZM306.661 139H302.773V122.2H315.469V125.32H306.661V139ZM326.097 139.288C324.769 139.288 323.537 139.072 322.401 138.64C321.281 138.208 320.305 137.6 319.473 136.816C318.657 136.032 318.017 135.112 317.553 134.056C317.105 133 316.881 131.848 316.881 130.6C316.881 129.352 317.105 128.2 317.553 127.144C318.017 126.088 318.665 125.168 319.497 124.384C320.329 123.6 321.305 122.992 322.425 122.56C323.545 122.128 324.761 121.912 326.073 121.912C327.401 121.912 328.617 122.128 329.721 122.56C330.841 122.992 331.809 123.6 332.625 124.384C333.457 125.168 334.105 126.088 334.569 127.144C335.033 128.184 335.265 129.336 335.265 130.6C335.265 131.848 335.033 133.008 334.569 134.08C334.105 135.136 333.457 136.056 332.625 136.84C331.809 137.608 330.841 138.208 329.721 138.64C328.617 139.072 327.409 139.288 326.097 139.288ZM326.073 135.976C326.825 135.976 327.513 135.848 328.137 135.592C328.777 135.336 329.337 134.968 329.817 134.488C330.297 134.008 330.665 133.44 330.921 132.784C331.193 132.128 331.329 131.4 331.329 130.6C331.329 129.8 331.193 129.072 330.921 128.416C330.665 127.76 330.297 127.192 329.817 126.712C329.353 126.232 328.801 125.864 328.161 125.608C327.521 125.352 326.825 125.224 326.073 125.224C325.321 125.224 324.625 125.352 323.985 125.608C323.361 125.864 322.809 126.232 322.329 126.712C321.849 127.192 321.473 127.76 321.201 128.416C320.945 129.072 320.817 129.8 320.817 130.6C320.817 131.384 320.945 132.112 321.201 132.784C321.473 133.44 321.841 134.008 322.305 134.488C322.785 134.968 323.345 135.336 323.985 135.592C324.625 135.848 325.321 135.976 326.073 135.976ZM345.651 139.288C343.267 139.288 341.403 138.624 340.059 137.296C338.715 135.968 338.043 134.072 338.043 131.608V122.2H341.931V131.464C341.931 133.064 342.259 134.216 342.915 134.92C343.571 135.624 344.491 135.976 345.675 135.976C346.859 135.976 347.779 135.624 348.435 134.92C349.091 134.216 349.419 133.064 349.419 131.464V122.2H353.259V131.608C353.259 134.072 352.587 135.968 351.243 137.296C349.899 138.624 348.035 139.288 345.651 139.288ZM357.101 139V122.2H360.317L370.229 134.296H368.669V122.2H372.509V139H369.317L359.381 126.904H360.941V139H357.101ZM376.484 139V122.2H384.116C385.94 122.2 387.548 122.552 388.94 123.256C390.332 123.944 391.42 124.912 392.204 126.16C392.988 127.408 393.38 128.888 393.38 130.6C393.38 132.296 392.988 133.776 392.204 135.04C391.42 136.288 390.332 137.264 388.94 137.968C387.548 138.656 385.94 139 384.116 139H376.484ZM380.372 135.808H383.924C385.044 135.808 386.012 135.6 386.828 135.184C387.66 134.752 388.3 134.144 388.748 133.36C389.212 132.576 389.444 131.656 389.444 130.6C389.444 129.528 389.212 128.608 388.748 127.84C388.3 127.056 387.66 126.456 386.828 126.04C386.012 125.608 385.044 125.392 383.924 125.392H380.372V135.808Z" fill="#C94A4A"/>
</svg>
